<svg width="16" height="16" viewBox="0 0 16 16" fill="none" xmlns="http://www.w3.org/2000/svg">
<path d="M3.11714 11.961C2.82977 11.9617 2.54738 11.8844 2.29882 11.7371C2.05026 11.5898 1.84445 11.3777 1.7024 11.1225C1.56252 10.8692 1.49276 10.5817 1.50059 10.2909C1.50842 10.0002 1.59354 9.71708 1.74684 9.47195L4.66028 4.79893C4.8094 4.54778 5.0211 4.34156 5.27378 4.20133C5.52646 4.0611 5.81105 3.99189 6.09848 4.00076C6.3857 4.00779 6.66593 4.09263 6.9105 4.24662C7.15507 4.4006 7.35519 4.61818 7.49039 4.87711C7.76199 5.40166 7.72804 6.03275 7.40274 6.52515L4.49115 11.1982C4.3435 11.4332 4.14016 11.6263 3.89997 11.7597C3.65978 11.893 3.39052 11.9623 3.11714 11.961Z" fill="#F62B54"/>
<path d="M8.1142 11.9608C7.52658 11.9608 6.98586 11.6399 6.70192 11.1242C6.56236 10.8715 6.49277 10.5848 6.50059 10.2948C6.50842 10.0048 6.59338 9.72248 6.74637 9.47805L9.65425 4.81575C9.80117 4.56107 10.0121 4.35117 10.2652 4.20783C10.5183 4.06449 10.8044 3.99292 11.0937 4.00055C11.6863 4.01379 12.2233 4.35235 12.4949 4.88195C12.7646 5.41154 12.7251 6.04642 12.3899 6.53755L9.48266 11.1999C9.33546 11.4339 9.13294 11.6262 8.89378 11.7592C8.65462 11.8922 8.38651 11.9616 8.1142 11.9608Z" fill="#FFCC00"/>
<path d="M12.9999 12.0001C13.8283 12.0001 14.4999 11.3285 14.4999 10.5002C14.4999 9.67183 13.8283 9.00031 12.9999 9.00031C12.1715 9.00031 11.5 9.67183 11.5 10.5002C11.5 11.3285 12.1715 12.0001 12.9999 12.0001Z" fill="#00CA72"/>
</svg>
