<svg width="25" height="24" viewBox="0 0 25 24" fill="none" xmlns="http://www.w3.org/2000/svg">
<path d="M17 3.89961H20.6C20.8387 3.89961 21.0676 3.99443 21.2364 4.16321C21.4052 4.332 21.5 4.56091 21.5 4.79961V19.1996C21.5 19.4383 21.4052 19.6672 21.2364 19.836C21.0676 20.0048 20.8387 20.0996 20.6 20.0996H4.4C4.16131 20.0996 3.93239 20.0048 3.7636 19.836C3.59482 19.6672 3.5 19.4383 3.5 19.1996V4.79961C3.5 4.56091 3.59482 4.332 3.7636 4.16321C3.93239 3.99443 4.16131 3.89961 4.4 3.89961H8V2.09961H9.8V3.89961H15.2V2.09961H17V3.89961ZM19.7 11.0996H5.3V18.2996H19.7V11.0996ZM15.2 5.69961H9.8V7.49961H8V5.69961H5.3V9.29961H19.7V5.69961H17V7.49961H15.2V5.69961ZM7.1 12.8996H8.9V14.6996H7.1V12.8996ZM11.6 12.8996H13.4V14.6996H11.6V12.8996ZM16.1 12.8996H17.9V14.6996H16.1V12.8996Z" fill="#171717"/>
</svg>
