<svg width="24" height="24" viewBox="0 0 24 24" fill="none"
     xmlns="http://www.w3.org/2000/svg">
  <!-- red circular background -->
  <circle cx="12" cy="12" r="12" fill="#DE2910"/>

  <!-- big star -->
  <polygon fill="#FFDE00"
    points="
      6.00,2.50
      6.79,4.92
      9.33,4.92
      7.27,6.41
      8.06,8.83
      6.00,7.34
      3.94,8.83
      4.73,6.41
      2.67,4.92
      5.21,4.92
    "/>

  <!-- four smaller stars -->
  <polygon fill="#FFDE00"
    points="
      10.00,2.50
      10.34,3.54
      11.43,3.54
      10.54,4.18
      10.88,5.21
      10.00,4.57
      9.12,5.21
      9.46,4.18
      8.57,3.54
      9.66,3.54
    "/>
  <polygon fill="#FFDE00"
    points="
      12.00,4.50
      12.34,5.54
      13.43,5.54
      12.54,6.18
      12.88,7.21
      12.00,6.57
      11.12,7.21
      11.46,6.18
      10.57,5.54
      11.66,5.54
    "/>
  <polygon fill="#FFDE00"
    points="
      12.00,7.50
      12.34,8.54
      13.43,8.54
      12.54,9.18
      12.88,10.21
      12.00,9.57
      11.12,10.21
      11.46,9.18
      10.57,8.54
      11.66,8.54
    "/>
  <polygon fill="#FFDE00"
    points="
      10.00,9.50
      10.34,10.54
      11.43,10.54
      10.54,11.18
      10.88,12.21
      10.00,11.57
      9.12,12.21
      9.46,11.18
      8.57,10.54
      9.66,10.54
    "/>
</svg>
