<svg width="25" height="24" viewBox="0 0 25 24" fill="none" xmlns="http://www.w3.org/2000/svg">
<path d="M12.5 3C7.532 3 3.5 7.032 3.5 12C3.5 16.968 7.532 21 12.5 21C17.459 21 21.5 16.968 21.5 12C21.5 7.032 17.459 3 12.5 3ZM18.4445 7.149C19.5521 8.49838 20.165 10.1859 20.1815 11.9316C19.9286 11.883 17.3906 11.3655 14.8328 11.6877C14.7743 11.5608 14.7248 11.424 14.6672 11.2872C14.5079 10.9119 14.3387 10.541 14.1596 10.1748C16.9901 9.0228 18.2789 7.3632 18.4445 7.149ZM12.5 4.3275C14.453 4.3275 16.2386 5.0601 17.5958 6.2607C17.459 6.4551 16.2971 8.0076 13.5638 9.0327C12.3047 6.7197 10.9088 4.8252 10.6937 4.5327C11.2858 4.39429 11.892 4.32542 12.5 4.3275ZM9.2303 5.0502C10.2603 6.47789 11.2118 7.96058 12.0806 9.4917C8.4878 10.4484 5.3153 10.4277 4.9742 10.4277C5.22154 9.26411 5.73435 8.17339 6.47261 7.24061C7.21087 6.30783 8.15464 5.5582 9.2303 5.0502ZM4.8077 12.009V11.775C5.1407 11.784 8.8685 11.8335 12.7052 10.6815C12.9302 11.1108 13.1345 11.55 13.3298 11.9892C13.2317 12.0189 13.1246 12.0477 13.0274 12.0774C9.0638 13.3554 6.9551 16.8501 6.7796 17.1435C5.51046 15.7345 4.80827 13.9053 4.8086 12.009H4.8077ZM12.5 19.6923C10.7913 19.6952 9.131 19.1248 7.7849 18.0723C7.9217 17.7888 9.4841 14.7819 13.8176 13.269C13.8374 13.26 13.8473 13.26 13.8662 13.2492C14.5973 15.1351 15.1467 17.0864 15.5069 19.0767C14.5572 19.4853 13.5338 19.6949 12.5 19.6923ZM16.7849 18.3738C16.7075 17.9058 16.2971 15.6603 15.2909 12.8982C17.7029 12.5175 19.8116 13.1421 20.0744 13.2303C19.9103 14.2681 19.5333 15.2607 18.9672 16.1459C18.4011 17.031 17.6581 17.7895 16.7849 18.3738Z" fill="#171717"/>
</svg>
