<svg width="32" height="32" viewBox="0 0 32 32" fill="none" xmlns="http://www.w3.org/2000/svg">
<path d="M16 5.19995C22.4704 5.19995 27.8536 9.85595 28.9828 16C27.8548 22.144 22.4704 26.8 16 26.8C9.5296 26.8 4.1464 22.144 3.0172 16C4.1452 9.85595 9.5296 5.19995 16 5.19995ZM16 24.4C18.4474 24.3994 20.8221 23.5681 22.7354 22.0422C24.6488 20.5162 25.9875 18.3859 26.5324 16C25.9855 13.6159 24.6459 11.488 22.7327 9.96398C20.8196 8.44001 18.446 7.61019 16 7.61019C13.554 7.61019 11.1804 8.44001 9.26725 9.96398C7.35407 11.488 6.01452 13.6159 5.4676 16C6.01251 18.3859 7.35121 20.5162 9.26457 22.0422C11.1779 23.5681 13.5526 24.3994 16 24.4V24.4ZM16 21.4C14.5678 21.4 13.1943 20.831 12.1816 19.8183C11.1689 18.8056 10.6 17.4321 10.6 16C10.6 14.5678 11.1689 13.1943 12.1816 12.1816C13.1943 11.1689 14.5678 10.6 16 10.6C17.4322 10.6 18.8057 11.1689 19.8184 12.1816C20.8311 13.1943 21.4 14.5678 21.4 16C21.4 17.4321 20.8311 18.8056 19.8184 19.8183C18.8057 20.831 17.4322 21.4 16 21.4ZM16 19C16.7956 19 17.5587 18.6839 18.1213 18.1213C18.6839 17.5587 19 16.7956 19 16C19 15.2043 18.6839 14.4412 18.1213 13.8786C17.5587 13.316 16.7956 13 16 13C15.2043 13 14.4413 13.316 13.8787 13.8786C13.3161 14.4412 13 15.2043 13 16C13 16.7956 13.3161 17.5587 13.8787 18.1213C14.4413 18.6839 15.2043 19 16 19Z" fill="#5C5C5C"/>
</svg>
