<svg width="25" height="24" viewBox="0 0 25 24" fill="none" xmlns="http://www.w3.org/2000/svg">
<path d="M20.6 19.1996C20.6 19.4383 20.5052 19.6672 20.3364 19.836C20.1676 20.0048 19.9387 20.0996 19.7 20.0996H5.30002C5.06133 20.0996 4.83241 20.0048 4.66363 19.836C4.49485 19.6672 4.40002 19.4383 4.40002 19.1996V9.58221C4.39997 9.44627 4.43071 9.31208 4.48995 9.18971C4.54918 9.06735 4.63536 8.96 4.74202 8.87571L11.942 3.19581C12.1009 3.07025 12.2975 3.00195 12.5 3.00195C12.7025 3.00195 12.8991 3.07025 13.058 3.19581L20.258 8.87481C20.3648 8.95919 20.4511 9.06669 20.5103 9.18922C20.5695 9.31175 20.6002 9.44612 20.6 9.58221V19.1996ZM8.00002 11.9996C8.00002 13.1931 8.47413 14.3377 9.31804 15.1816C10.162 16.0255 11.3066 16.4996 12.5 16.4996C13.6935 16.4996 14.8381 16.0255 15.682 15.1816C16.5259 14.3377 17 13.1931 17 11.9996H15.2C15.2 12.7157 14.9156 13.4025 14.4092 13.9088C13.9029 14.4151 13.2161 14.6996 12.5 14.6996C11.7839 14.6996 11.0972 14.4151 10.5908 13.9088C10.0845 13.4025 9.80002 12.7157 9.80002 11.9996H8.00002Z" fill="#171717"/>
</svg>
