<svg width="25" height="24" viewBox="0 0 25 24" fill="none" xmlns="http://www.w3.org/2000/svg">
<path d="M12.5 9.3C11.7839 9.3 11.0972 9.58446 10.5908 10.0908C10.0845 10.5972 9.8 11.2839 9.8 12C9.8 12.7161 10.0845 13.4028 10.5908 13.9092C11.0972 14.4155 11.7839 14.7 12.5 14.7C13.2161 14.7 13.9028 14.4155 14.4092 13.9092C14.9155 13.4028 15.2 12.7161 15.2 12C15.2 11.2839 14.9155 10.5972 14.4092 10.0908C13.9028 9.58446 13.2161 9.3 12.5 9.3ZM12.5 7.5C13.6935 7.5 14.8381 7.97411 15.682 8.81802C16.5259 9.66193 17 10.8065 17 12C17 13.1935 16.5259 14.3381 15.682 15.182C14.8381 16.0259 13.6935 16.5 12.5 16.5C11.3065 16.5 10.1619 16.0259 9.31802 15.182C8.47411 14.3381 8 13.1935 8 12C8 10.8065 8.47411 9.66193 9.31802 8.81802C10.1619 7.97411 11.3065 7.5 12.5 7.5ZM18.35 7.275C18.35 7.57337 18.2315 7.85952 18.0205 8.0705C17.8095 8.28147 17.5234 8.4 17.225 8.4C16.9266 8.4 16.6405 8.28147 16.4295 8.0705C16.2185 7.85952 16.1 7.57337 16.1 7.275C16.1 6.97663 16.2185 6.69048 16.4295 6.4795C16.6405 6.26853 16.9266 6.15 17.225 6.15C17.5234 6.15 17.8095 6.26853 18.0205 6.4795C18.2315 6.69048 18.35 6.97663 18.35 7.275ZM12.5 4.8C10.2734 4.8 9.9098 4.8063 8.8739 4.8522C8.1683 4.8855 7.6949 4.98 7.2557 5.151C6.8651 5.3022 6.5834 5.4831 6.2837 5.7837C6.00201 6.05586 5.78542 6.38813 5.6501 6.7557C5.4791 7.1967 5.3846 7.6692 5.3522 8.3739C5.3054 9.3675 5.3 9.7149 5.3 12C5.3 14.2266 5.3063 14.5902 5.3522 15.6261C5.3855 16.3308 5.48 16.8051 5.6501 17.2434C5.8031 17.6349 5.9831 17.9166 6.2819 18.2154C6.5852 18.5178 6.8669 18.6987 7.2539 18.8481C7.6985 19.02 8.1719 19.1154 8.8739 19.1478C9.8675 19.1946 10.2149 19.2 12.5 19.2C14.7266 19.2 15.0902 19.1937 16.1261 19.1478C16.8299 19.1145 17.3042 19.02 17.7434 18.8499C18.1331 18.6978 18.4166 18.5169 18.7154 18.2181C19.0187 17.9148 19.1996 17.6331 19.349 17.2461C19.52 16.8024 19.6154 16.3281 19.6478 15.6261C19.6946 14.6325 19.7 14.2851 19.7 12C19.7 9.7734 19.6937 9.4098 19.6478 8.3739C19.6145 7.6701 19.52 7.1949 19.349 6.7557C19.2134 6.3885 18.9972 6.05636 18.7163 5.7837C18.4443 5.50186 18.112 5.28525 17.7443 5.1501C17.3033 4.9791 16.8299 4.8846 16.1261 4.8522C15.1325 4.8054 14.7851 4.8 12.5 4.8ZM12.5 3C14.9453 3 15.2504 3.009 16.2098 3.054C17.1683 3.099 17.8208 3.2493 18.395 3.4725C18.989 3.7011 19.4894 4.0107 19.9898 4.5102C20.4474 4.96011 20.8016 5.50433 21.0275 6.105C21.2498 6.6783 21.401 7.3317 21.446 8.2902C21.4883 9.2496 21.5 9.5547 21.5 12C21.5 14.4453 21.491 14.7504 21.446 15.7098C21.401 16.6683 21.2498 17.3208 21.0275 17.895C20.8022 18.496 20.448 19.0404 19.9898 19.4898C19.5398 19.9473 18.9956 20.3014 18.395 20.5275C17.8217 20.7498 17.1683 20.901 16.2098 20.946C15.2504 20.9883 14.9453 21 12.5 21C10.0547 21 9.7496 20.991 8.7902 20.946C7.8317 20.901 7.1792 20.7498 6.605 20.5275C6.00409 20.302 5.45977 19.9478 5.0102 19.4898C4.55247 19.04 4.19834 18.4957 3.9725 17.895C3.7493 17.3217 3.599 16.6683 3.554 15.7098C3.5117 14.7504 3.5 14.4453 3.5 12C3.5 9.5547 3.509 9.2496 3.554 8.2902C3.599 7.3308 3.7493 6.6792 3.9725 6.105C4.19771 5.50396 4.55192 4.95959 5.0102 4.5102C5.4599 4.05231 6.00419 3.69816 6.605 3.4725C7.1792 3.2493 7.8308 3.099 8.7902 3.054C9.7496 3.0117 10.0547 3 12.5 3Z" fill="#171717"/>
</svg>
