<svg width="25" height="24" viewBox="0 0 25 24" fill="none" xmlns="http://www.w3.org/2000/svg">
<path d="M18.2015 17.7035H15.803V13.9442C15.803 13.0478 15.785 11.894 14.552 11.894C13.3019 11.894 13.1111 12.8696 13.1111 13.8785V17.7035H10.7117V9.97344H13.0157V11.0264H13.0472C13.3694 10.4198 14.1524 9.77814 15.3224 9.77814C17.7524 9.77814 18.2024 11.3783 18.2024 13.46V17.7035H18.2015ZM8.00272 8.91594C7.81962 8.91617 7.63828 8.88027 7.46908 8.81028C7.29988 8.7403 7.14617 8.6376 7.01674 8.50809C6.88731 8.37858 6.78471 8.22479 6.71483 8.05555C6.64496 7.88631 6.60917 7.70494 6.60952 7.52184C6.6097 7.24629 6.69159 6.97698 6.84482 6.74797C6.99806 6.51896 7.21576 6.34053 7.4704 6.23524C7.72504 6.12996 8.00519 6.10255 8.27541 6.15648C8.54563 6.21042 8.79378 6.34327 8.9885 6.53823C9.18322 6.7332 9.31575 6.98153 9.36933 7.25182C9.42291 7.52211 9.39514 7.80222 9.28953 8.05672C9.18392 8.31123 9.00521 8.5287 8.776 8.68164C8.54679 8.83458 8.27737 8.91612 8.00182 8.91594H8.00272ZM9.20512 17.7035H6.79942V9.97344H9.20602V17.7035H9.20512ZM19.403 3.89844H5.59612C4.93372 3.89844 4.40002 4.42044 4.40002 5.06574V18.9311C4.40002 19.5764 4.93462 20.0984 5.59522 20.0984H19.3994C20.06 20.0984 20.6 19.5764 20.6 18.9311V5.06574C20.6 4.42044 20.06 3.89844 19.3994 3.89844H19.4021H19.403Z" fill="#171717"/>
</svg>
