<svg width="25" height="24" viewBox="0 0 25 24" fill="none" xmlns="http://www.w3.org/2000/svg">
<path d="M13.454 8.49882L14.7275 9.77232C15.3126 10.3573 15.7767 11.0519 16.0933 11.8163C16.41 12.5807 16.5729 13.3999 16.5729 14.2273C16.5729 15.0547 16.41 15.874 16.0933 16.6384C15.7767 17.4028 15.3126 18.0973 14.7275 18.6823L14.4089 19C13.2273 20.1816 11.6248 20.8453 9.95389 20.8453C8.28294 20.8453 6.68043 20.1816 5.49889 19C4.31735 17.8185 3.65356 16.216 3.65356 14.545C3.65356 12.8741 4.31735 11.2716 5.49889 10.09L6.77239 11.3635C6.35152 11.7807 6.0172 12.2769 5.78862 12.8237C5.56004 13.3704 5.44171 13.9569 5.44041 14.5495C5.43911 15.1422 5.55488 15.7292 5.78106 16.2769C6.00724 16.8247 6.33938 17.3223 6.75842 17.7414C7.17746 18.1604 7.67513 18.4926 8.22288 18.7187C8.77062 18.9449 9.35765 19.0607 9.95025 19.0594C10.5429 19.0581 11.1294 18.9398 11.6761 18.7112C12.2229 18.4826 12.7191 18.1483 13.1363 17.7274L13.4549 17.4088C14.2985 16.5649 14.7724 15.4206 14.7724 14.2273C14.7724 13.0341 14.2985 11.8897 13.4549 11.0458L12.1814 9.77232L13.4549 8.49972L13.454 8.49882ZM19.5002 13.9087L18.2276 12.6361C18.6485 12.2189 18.9828 11.7227 19.2113 11.176C19.4399 10.6292 19.5583 10.0427 19.5596 9.45009C19.5609 8.85748 19.4451 8.27046 19.2189 7.72271C18.9927 7.17496 18.6606 6.67729 18.2416 6.25825C17.8225 5.83922 17.3248 5.50707 16.7771 5.28089C16.2293 5.05471 15.6423 4.93895 15.0497 4.94024C14.4571 4.94154 13.8706 5.05988 13.3238 5.28845C12.7771 5.51703 12.2809 5.85135 11.8637 6.27222L11.5451 6.59082C10.7015 7.43469 10.2275 8.57908 10.2275 9.77232C10.2275 10.9656 10.7015 12.1099 11.5451 12.9538L12.8186 14.2273L11.5451 15.4999L10.2725 14.2273C9.68741 13.6423 9.2233 12.9478 8.90665 12.1834C8.59001 11.419 8.42703 10.5997 8.42703 9.77232C8.42703 8.94494 8.59001 8.12566 8.90665 7.36126C9.2233 6.59687 9.68741 5.90234 10.2725 5.31732L10.5911 4.99962C11.7726 3.81808 13.3751 3.1543 15.0461 3.1543C16.717 3.1543 18.3195 3.81808 19.5011 4.99962C20.6826 6.18116 21.3464 7.78367 21.3464 9.45462C21.3464 11.1256 20.6826 12.7281 19.5011 13.9096L19.5002 13.9087Z" fill="#171717"/>
</svg>
