<svg width="25" height="24" viewBox="0 0 25 24" fill="none" xmlns="http://www.w3.org/2000/svg">
<path d="M4.70601 16.5016C4.32555 15.8437 4.0298 15.1403 3.82581 14.4082C4.26978 14.1824 4.64264 13.8382 4.90313 13.4136C5.16362 12.989 5.30159 12.5007 5.30178 12.0026C5.30197 11.5045 5.16436 11.0161 4.90419 10.5913C4.64401 10.1665 4.27141 9.82204 3.82761 9.5959C4.23444 8.12484 5.00906 6.78156 6.07851 5.6926C6.49619 5.96415 6.98086 6.11484 7.47889 6.128C7.97691 6.14116 8.46886 6.01627 8.9003 5.76715C9.33174 5.51803 9.68584 5.1544 9.92342 4.71649C10.161 4.27859 10.2728 3.7835 10.2464 3.286C11.7243 2.90406 13.2751 2.90468 14.7527 3.2878C14.7266 3.78529 14.8386 4.28031 15.0763 4.71809C15.3141 5.15586 15.6683 5.51933 16.0999 5.76825C16.5314 6.01718 17.0234 6.14187 17.5214 6.12851C18.0193 6.11516 18.5039 5.96429 18.9215 5.6926C19.4426 6.2236 19.9052 6.8275 20.294 7.5016C20.6837 8.1757 20.9753 8.8786 21.1742 9.595C20.7302 9.82081 20.3574 10.165 20.0969 10.5896C19.8364 11.0142 19.6984 11.5025 19.6982 12.0006C19.698 12.4987 19.8356 12.9871 20.0958 13.4119C20.356 13.8367 20.7286 14.1812 21.1724 14.4073C20.7656 15.8784 19.9909 17.2216 18.9215 18.3106C18.5038 18.039 18.0191 17.8884 17.5211 17.8752C17.0231 17.862 16.5311 17.9869 16.0997 18.236C15.6683 18.4852 15.3142 18.8488 15.0766 19.2867C14.839 19.7246 14.7272 20.2197 14.7536 20.7172C13.2757 21.0991 11.7249 21.0985 10.2473 20.7154C10.2734 20.2179 10.1614 19.7229 9.92368 19.2851C9.68593 18.8473 9.33168 18.4839 8.90016 18.2349C8.46864 17.986 7.97666 17.8613 7.47866 17.8747C6.98066 17.888 6.49607 18.0389 6.07851 18.3106C5.5466 17.7678 5.08544 17.16 4.70601 16.5016ZM9.80001 16.678C10.7591 17.2312 11.4802 18.1189 11.825 19.171C12.2741 19.2133 12.725 19.2142 13.1741 19.1719C13.5192 18.1197 14.2406 17.2319 15.2 16.6789C16.1587 16.1242 17.2885 15.9431 18.3725 16.1704C18.6335 15.8032 18.8585 15.4117 19.0457 15.0022C18.3072 14.1773 17.8992 13.1088 17.9 12.0016C17.9 10.8676 18.323 9.8083 19.0457 9.001C18.8572 8.59163 18.6312 8.20057 18.3707 7.8328C17.2874 8.05988 16.1583 7.87913 15.2 7.3252C14.2409 6.77203 13.5198 5.88428 13.175 4.8322C12.7259 4.7899 12.275 4.789 11.8259 4.8313C11.4808 5.88353 10.7594 6.7713 9.80001 7.3243C8.84131 7.87898 7.71153 8.06007 6.62751 7.8328C6.36701 8.20026 6.14162 8.59137 5.95431 9.001C6.69282 9.8259 7.1008 10.8944 7.10001 12.0016C7.10001 13.1356 6.67701 14.1949 5.95431 15.0022C6.14283 15.4116 6.36879 15.8026 6.62931 16.1704C7.71265 15.9433 8.84169 16.1241 9.80001 16.678ZM12.5 14.7016C11.7839 14.7016 11.0972 14.4171 10.5908 13.9108C10.0845 13.4044 9.80001 12.7177 9.80001 12.0016C9.80001 11.2855 10.0845 10.5988 10.5908 10.0924C11.0972 9.58606 11.7839 9.3016 12.5 9.3016C13.2161 9.3016 13.9028 9.58606 14.4092 10.0924C14.9155 10.5988 15.2 11.2855 15.2 12.0016C15.2 12.7177 14.9155 13.4044 14.4092 13.9108C13.9028 14.4171 13.2161 14.7016 12.5 14.7016ZM12.5 12.9016C12.7387 12.9016 12.9676 12.8068 13.1364 12.638C13.3052 12.4692 13.4 12.2403 13.4 12.0016C13.4 11.7629 13.3052 11.534 13.1364 11.3652C12.9676 11.1964 12.7387 11.1016 12.5 11.1016C12.2613 11.1016 12.0324 11.1964 11.8636 11.3652C11.6948 11.534 11.6 11.7629 11.6 12.0016C11.6 12.2403 11.6948 12.4692 11.8636 12.638C12.0324 12.8068 12.2613 12.9016 12.5 12.9016Z" fill="#171717"/>
</svg>
