<svg width="25" height="24" viewBox="0 0 25 24" fill="none" xmlns="http://www.w3.org/2000/svg">
<path d="M14.3 14.0284V15.9094C13.4854 15.6214 12.6136 15.533 11.7579 15.6518C10.9021 15.7705 10.0873 16.0929 9.38188 16.5917C8.67649 17.0906 8.1011 17.7515 7.70403 18.5188C7.30697 19.2862 7.09982 20.1376 7.09999 21.0016L5.29999 21.0007C5.29971 19.9017 5.55102 18.8172 6.03466 17.8303C6.5183 16.8435 7.22143 15.9804 8.09018 15.3073C8.95894 14.6342 9.97025 14.1689 11.0466 13.947C12.123 13.7252 13.2359 13.7527 14.3 14.0275V14.0284ZM12.5 12.9016C9.51649 12.9016 7.09999 10.4851 7.09999 7.50156C7.09999 4.51806 9.51649 2.10156 12.5 2.10156C15.4835 2.10156 17.9 4.51806 17.9 7.50156C17.9 10.4851 15.4835 12.9016 12.5 12.9016ZM12.5 11.1016C14.489 11.1016 16.1 9.49056 16.1 7.50156C16.1 5.51256 14.489 3.90156 12.5 3.90156C10.511 3.90156 8.89999 5.51256 8.89999 7.50156C8.89999 9.49056 10.511 11.1016 12.5 11.1016ZM17.9 16.5016V13.8016H19.7V16.5016H22.4V18.3016H19.7V21.0016H17.9V18.3016H15.2V16.5016H17.9Z" fill="#171717"/>
</svg>
