<svg width="19" height="19" viewBox="0 0 19 19" fill="none" xmlns="http://www.w3.org/2000/svg">
<path d="M14 1.89961H17.6C17.8387 1.89961 18.0676 1.99443 18.2364 2.16321C18.4052 2.332 18.5 2.56091 18.5 2.79961V17.1996C18.5 17.4383 18.4052 17.6672 18.2364 17.836C18.0676 18.0048 17.8387 18.0996 17.6 18.0996H1.4C1.16131 18.0996 0.932387 18.0048 0.763604 17.836C0.594821 17.6672 0.5 17.4383 0.5 17.1996V2.79961C0.5 2.56091 0.594821 2.332 0.763604 2.16321C0.932387 1.99443 1.16131 1.89961 1.4 1.89961H5V0.0996094H6.8V1.89961H12.2V0.0996094H14V1.89961ZM16.7 9.09961H2.3V16.2996H16.7V9.09961ZM12.2 3.69961H6.8V5.49961H5V3.69961H2.3V7.29961H16.7V3.69961H14V5.49961H12.2V3.69961ZM4.1 10.8996H5.9V12.6996H4.1V10.8996ZM8.6 10.8996H10.4V12.6996H8.6V10.8996ZM13.1 10.8996H14.9V12.6996H13.1V10.8996Z" fill="#171717"/>
</svg>
