<svg width="25" height="24" viewBox="0 0 25 24" fill="none" xmlns="http://www.w3.org/2000/svg">
<path d="M19.3454 7.49628C19.277 7.22808 19.0826 7.02558 18.8603 6.96348C18.467 6.85278 16.55 6.60078 12.5 6.60078C8.45 6.60078 6.5348 6.85278 6.1379 6.96348C5.9183 7.02468 5.7239 7.22718 5.6546 7.49628C5.5565 7.87788 5.3 9.47718 5.3 12.0008C5.3 14.5244 5.5565 16.1228 5.6546 16.5062C5.723 16.7735 5.9174 16.976 6.1388 17.0372C6.5348 17.1488 8.45 17.4008 12.5 17.4008C16.55 17.4008 18.4661 17.1488 18.8621 17.0381C19.0817 16.9769 19.2761 16.7744 19.3454 16.5053C19.4435 16.1237 19.7 14.5208 19.7 12.0008C19.7 9.48078 19.4435 7.87878 19.3454 7.49628ZM21.0887 7.04898C21.5 8.65278 21.5 12.0008 21.5 12.0008C21.5 12.0008 21.5 15.3488 21.0887 16.9526C20.8601 17.8391 20.1914 18.5366 19.3445 18.7724C17.8064 19.2008 12.5 19.2008 12.5 19.2008C12.5 19.2008 7.1963 19.2008 5.6555 18.7724C4.805 18.533 4.1372 17.8364 3.9113 16.9526C3.5 15.3488 3.5 12.0008 3.5 12.0008C3.5 12.0008 3.5 8.65278 3.9113 7.04898C4.1399 6.16248 4.8086 5.46498 5.6555 5.22918C7.1963 4.80078 12.5 4.80078 12.5 4.80078C12.5 4.80078 17.8064 4.80078 19.3445 5.22918C20.195 5.46858 20.8628 6.16518 21.0887 7.04898ZM10.7 15.1508V8.85078L16.1 12.0008L10.7 15.1508Z" fill="#171717"/>
</svg>
